<mxfile host="app.diagrams.net" modified="2021-04-20T02:38:52.100Z" agent="5.0 (Macintosh; Intel Mac OS X 11_2_0) AppleWebKit/537.36 (KHTML, like Gecko) Chrome/88.0.4324.146 Safari/537.36" etag="IkR9aDffaFtCOzddlNJN" version="14.6.3" type="github">
  <diagram id="p26OXxuvKFpikFnFWBYx" name="Page-1">
    <mxGraphModel dx="1166" dy="662" grid="1" gridSize="10" guides="1" tooltips="1" connect="1" arrows="1" fold="1" page="1" pageScale="1" pageWidth="827" pageHeight="1169" math="0" shadow="0">
      <root>
        <mxCell id="0" />
        <mxCell id="1" parent="0" />
        <mxCell id="fn6K2neiFV15tlPslCsQ-2" value="DF" style="shape=module;align=left;spacingLeft=20;align=center;verticalAlign=top;" vertex="1" parent="1">
          <mxGeometry x="60" y="70" width="100" height="50" as="geometry" />
        </mxCell>
        <mxCell id="fn6K2neiFV15tlPslCsQ-3" value="CC" style="shape=module;align=left;spacingLeft=20;align=center;verticalAlign=top;" vertex="1" parent="1">
          <mxGeometry x="290" y="90" width="100" height="50" as="geometry" />
        </mxCell>
        <mxCell id="fn6K2neiFV15tlPslCsQ-4" value="Shrine&#xa;" style="shape=module;align=left;spacingLeft=20;align=center;verticalAlign=top;" vertex="1" parent="1">
          <mxGeometry x="230" y="350" width="100" height="50" as="geometry" />
        </mxCell>
        <mxCell id="fn6K2neiFV15tlPslCsQ-5" value="3 开通敏捷版" style="html=1;verticalAlign=bottom;startArrow=oval;startFill=1;endArrow=block;startSize=8;exitX=1;exitY=1;exitDx=0;exitDy=0;entryX=0;entryY=1;entryDx=10;entryDy=0;entryPerimeter=0;" edge="1" parent="1" source="fn6K2neiFV15tlPslCsQ-2" target="fn6K2neiFV15tlPslCsQ-3">
          <mxGeometry width="60" relative="1" as="geometry">
            <mxPoint x="330" y="290" as="sourcePoint" />
            <mxPoint x="390" y="290" as="targetPoint" />
            <Array as="points">
              <mxPoint x="200" y="160" />
            </Array>
          </mxGeometry>
        </mxCell>
        <mxCell id="fn6K2neiFV15tlPslCsQ-7" value="1、注册" style="ellipse;shape=umlControl;whiteSpace=wrap;html=1;" vertex="1" parent="1">
          <mxGeometry x="440" y="170" width="70" height="80" as="geometry" />
        </mxCell>
        <mxCell id="fn6K2neiFV15tlPslCsQ-8" value="4、同意敏捷版（付费）协议" style="ellipse;shape=umlControl;whiteSpace=wrap;html=1;" vertex="1" parent="1">
          <mxGeometry x="590" y="160" width="80" height="90" as="geometry" />
        </mxCell>
        <mxCell id="fn6K2neiFV15tlPslCsQ-9" value="2 同步线索信息，&lt;br&gt;包括CC账单，企业信息等" style="html=1;verticalAlign=bottom;startArrow=oval;startFill=1;endArrow=block;startSize=8;exitX=0.1;exitY=0.9;exitDx=0;exitDy=0;exitPerimeter=0;entryX=1;entryY=0;entryDx=0;entryDy=0;" edge="1" parent="1" source="fn6K2neiFV15tlPslCsQ-7" target="fn6K2neiFV15tlPslCsQ-4">
          <mxGeometry width="60" relative="1" as="geometry">
            <mxPoint x="380" y="330" as="sourcePoint" />
            <mxPoint x="440" y="330" as="targetPoint" />
          </mxGeometry>
        </mxCell>
        <mxCell id="fn6K2neiFV15tlPslCsQ-10" value="5、根据CC 账号&lt;br&gt;将线索改为正式客户" style="html=1;verticalAlign=bottom;startArrow=oval;startFill=1;endArrow=block;startSize=8;exitX=0.343;exitY=0.988;exitDx=0;exitDy=0;exitPerimeter=0;entryX=0.94;entryY=0.98;entryDx=0;entryDy=0;entryPerimeter=0;" edge="1" parent="1" source="fn6K2neiFV15tlPslCsQ-8" target="fn6K2neiFV15tlPslCsQ-4">
          <mxGeometry width="60" relative="1" as="geometry">
            <mxPoint x="380" y="330" as="sourcePoint" />
            <mxPoint x="440" y="330" as="targetPoint" />
            <Array as="points">
              <mxPoint x="560" y="340" />
            </Array>
          </mxGeometry>
        </mxCell>
        <mxCell id="fn6K2neiFV15tlPslCsQ-13" value="" style="html=1;verticalAlign=bottom;startArrow=oval;startFill=1;endArrow=block;startSize=8;exitX=1;exitY=0.25;exitDx=0;exitDy=0;entryX=0.271;entryY=0.1;entryDx=0;entryDy=0;entryPerimeter=0;" edge="1" parent="1" source="fn6K2neiFV15tlPslCsQ-3" target="fn6K2neiFV15tlPslCsQ-8">
          <mxGeometry x="0.1761" y="-41" width="60" relative="1" as="geometry">
            <mxPoint x="380" y="330" as="sourcePoint" />
            <mxPoint x="440" y="330" as="targetPoint" />
            <Array as="points">
              <mxPoint x="510" y="115" />
            </Array>
            <mxPoint as="offset" />
          </mxGeometry>
        </mxCell>
        <mxCell id="fn6K2neiFV15tlPslCsQ-14" value="Text" style="text;html=1;strokeColor=none;fillColor=none;align=center;verticalAlign=middle;whiteSpace=wrap;rounded=0;" vertex="1" parent="1">
          <mxGeometry x="60" y="450" width="40" height="20" as="geometry" />
        </mxCell>
        <mxCell id="fn6K2neiFV15tlPslCsQ-19" value="" style="html=1;verticalAlign=bottom;startArrow=oval;startFill=1;endArrow=block;startSize=8;exitX=1;exitY=1;exitDx=0;exitDy=0;" edge="1" parent="1" source="fn6K2neiFV15tlPslCsQ-3" target="fn6K2neiFV15tlPslCsQ-7">
          <mxGeometry width="60" relative="1" as="geometry">
            <mxPoint x="210" y="210" as="sourcePoint" />
            <mxPoint x="270" y="210" as="targetPoint" />
          </mxGeometry>
        </mxCell>
        <mxCell id="fn6K2neiFV15tlPslCsQ-20" value="5、开通敏捷版" style="html=1;verticalAlign=bottom;startArrow=oval;startFill=1;endArrow=block;startSize=8;exitX=0.443;exitY=0.038;exitDx=0;exitDy=0;exitPerimeter=0;entryX=1;entryY=0;entryDx=0;entryDy=0;" edge="1" parent="1" source="fn6K2neiFV15tlPslCsQ-8" target="fn6K2neiFV15tlPslCsQ-2">
          <mxGeometry width="60" relative="1" as="geometry">
            <mxPoint x="380" y="330" as="sourcePoint" />
            <mxPoint x="440" y="330" as="targetPoint" />
            <Array as="points">
              <mxPoint x="540" y="50" />
              <mxPoint x="390" y="40" />
            </Array>
          </mxGeometry>
        </mxCell>
      </root>
    </mxGraphModel>
  </diagram>
</mxfile>
